<?xml version="1.0" encoding="utf-8"?>
<!-- Generator: Adobe Illustrator 15.0.2, SVG Export Plug-In . SVG Version: 6.00 Build 0)  -->
<!DOCTYPE svg PUBLIC "-//W3C//DTD SVG 1.1//EN" "http://www.w3.org/Graphics/SVG/1.1/DTD/svg11.dtd">
<svg version="1.1" id="Layer_1" xmlns="http://www.w3.org/2000/svg" xmlns:xlink="http://www.w3.org/1999/xlink" x="0px" y="0px"
	 width="56.69px" height="30.75px" viewBox="0 0 56.69 30.75" enable-background="new 0 0 56.69 30.75" xml:space="preserve">
<g>
	<path fill-rule="evenodd" clip-rule="evenodd" fill="#231F20" d="M28.49,0.302c0.227,0.046,0.362,0.182,0.454,0.364l11.412,19.73
		c0.093,0.136,0.093,0.228,0.093,0.409c0,0.362-0.276,0.592-0.638,0.637c-0.045,0-0.045,0-0.091,0H16.942
		c-0.138,0-0.273-0.045-0.409-0.092c-0.273-0.228-0.364-0.545-0.228-0.908l0.045-0.046l11.366-19.73
		c0.091-0.136,0.182-0.228,0.318-0.318C28.17,0.302,28.351,0.257,28.49,0.302L28.49,0.302z M38.084,19.805h-19.46l9.728-16.911
		L38.084,19.805L38.084,19.805z"/>
	<path fill-rule="evenodd" clip-rule="evenodd" fill="#231F20" d="M26.996,9.13c-0.038-0.674,0.503-1.31,1.308-1.248
		c0.678,0,1.288,0.567,1.271,1.248l-0.462,5.202c-0.043,0.457-0.424,0.719-0.809,0.719s-0.731-0.254-0.808-0.719L26.996,9.13
		L26.996,9.13z M28.303,15.83c0.693,0,1.271,0.578,1.271,1.271c0,0.73-0.578,1.31-1.271,1.31c-0.692,0-1.271-0.579-1.271-1.31
		C27.033,16.408,27.611,15.83,28.303,15.83L28.303,15.83z"/>
</g>
<text x="28" y="29" font-family="'Arial'" font-size="8" font-weight="bold" text-anchor="middle">Warning</text>
</svg>
