<?xml version="1.0" encoding="utf-8"?>
<!-- Generator: Adobe Illustrator 15.0.2, SVG Export Plug-In . SVG Version: 6.00 Build 0)  -->
<!DOCTYPE svg PUBLIC "-//W3C//DTD SVG 1.1//EN" "http://www.w3.org/Graphics/SVG/1.1/DTD/svg11.dtd">
<svg version="1.1" xmlns="http://www.w3.org/2000/svg" xmlns:xlink="http://www.w3.org/1999/xlink" x="0px" y="0px"
	 width="70.866px" height="39.588px" viewBox="0 0 70.866 39.588" enable-background="new 0 0 70.866 39.588" xml:space="preserve">
<g id="sign">
	<g>
		<path fill-rule="evenodd" clip-rule="evenodd" fill="#231F20" d="M35.614,0.25c0.283,0.058,0.453,0.228,0.569,0.456l14.298,24.722
			c0.116,0.171,0.116,0.287,0.116,0.513c0,0.456-0.346,0.742-0.799,0.798c-0.057,0-0.057,0-0.114,0H21.144
			c-0.171,0-0.341-0.057-0.512-0.114c-0.342-0.285-0.456-0.684-0.286-1.138l0.057-0.059L34.645,0.707
			c0.113-0.17,0.227-0.285,0.398-0.398C35.214,0.25,35.441,0.194,35.614,0.25L35.614,0.25z M47.635,24.688H23.251l12.19-21.19
			L47.635,24.688L47.635,24.688z"/>
		<path fill-rule="evenodd" clip-rule="evenodd" fill="#231F20" d="M33.742,11.312c-0.048-0.845,0.631-1.641,1.638-1.564
			c0.85,0,1.613,0.711,1.592,1.564l-0.579,6.518c-0.053,0.573-0.53,0.902-1.013,0.902c-0.482,0-0.916-0.32-1.012-0.902
			L33.742,11.312L33.742,11.312z M35.38,19.707c0.87,0,1.592,0.725,1.592,1.593c0,0.916-0.722,1.641-1.592,1.641
			c-0.867,0-1.592-0.726-1.592-1.641C33.788,20.431,34.513,19.707,35.38,19.707L35.38,19.707z"/>
	</g>
</g>
<g id="caution">
	<text x="35.4" y="37" font-family="'Arial'" font-size="12" font-weight="bold" text-anchor="middle">Warning</text>
</g>
</svg>
