<?xml version="1.0" encoding="utf-8"?>
<!-- Generator: Adobe Illustrator 15.1.0, SVG Export Plug-In . SVG Version: 6.00 Build 0)  -->
<!DOCTYPE svg PUBLIC "-//W3C//DTD SVG 1.1//EN" "http://www.w3.org/Graphics/SVG/1.1/DTD/svg11.dtd">
<svg version="1.1" id="Layer_2" xmlns="http://www.w3.org/2000/svg" xmlns:xlink="http://www.w3.org/1999/xlink" x="0px" y="0px"
	 width="57.604px" height="53.333px" viewBox="-5.962 0.406 57.604 53.333" enable-background="new -5.962 0.406 57.604 53.333"
	 xml:space="preserve">
<line fill="none" stroke="#000000" stroke-width="1.4173" stroke-miterlimit="10" x1="51.642" y1="0.954" x2="7.884" y2="46.493"/>
<line fill="none" stroke="#000000" stroke-width="1.4173" stroke-miterlimit="10" x1="6.982" y1="0.954" x2="48.865" y2="46.493"/>
<line fill="none" stroke="#000000" stroke-width="1.4173" stroke-miterlimit="10" x1="16.598" y1="9.172" x2="41.652" y2="9.172"/>
<line fill="none" stroke="#000000" stroke-width="1.4173" stroke-miterlimit="10" x1="19.003" y1="9.172" x2="21.787" y2="41.186"/>
<line fill="none" stroke="#000000" stroke-width="1.4173" stroke-miterlimit="10" x1="39.677" y1="9.3" x2="37.349" y2="35.49"/>
<line fill="none" stroke="#000000" stroke-width="1.4173" stroke-miterlimit="10" x1="21.787" y1="40.553" x2="33.185" y2="40.553"/>
<line fill="none" stroke="#000000" stroke-width="1.4173" stroke-miterlimit="10" x1="21.787" y1="41.186" x2="21.787" y2="43.461"/>
<line fill="none" stroke="#000000" stroke-width="1.4173" stroke-miterlimit="10" x1="23.684" y1="41.186" x2="23.684" y2="43.461"/>
<line fill="none" stroke="#000000" stroke-width="0.5669" stroke-miterlimit="10" x1="21.102" y1="43.461" x2="24.479" y2="43.461"/>
<ellipse fill="none" stroke="#000000" stroke-width="1.9843" stroke-miterlimit="10" cx="36.431" cy="39.666" rx="3.246" ry="3.291"/>
<circle fill="none" stroke="#000000" stroke-width="1.4173" stroke-miterlimit="10" cx="36.478" cy="39.588" r="0.806"/>
<circle fill="none" stroke="#000000" stroke-width="1.9843" stroke-miterlimit="10" cx="41.146" cy="7.86" r="0.806"/>
<line fill="none" stroke="#000000" stroke-width="2.8346" stroke-miterlimit="10" x1="18.371" y1="52.322" x2="41.031" y2="52.322"/>
<line fill="none" stroke="#000000" stroke-width="2.8346" stroke-miterlimit="10" x1="22.285" y1="4.337" x2="22.285" y2="8.909"/>
<rect x="38.259" y="11.576" fill="none" stroke="#000000" stroke-width="1.4173" stroke-miterlimit="10" width="4.152" height="3.542"/>
<rect x="27.378" y="17.397" fill="none" stroke="#000000" stroke-width="1.4173" stroke-miterlimit="10" width="7.568" height="1.771"/>
<rect x="27.632" y="4.354" fill="none" stroke="#000000" stroke-width="1.4173" stroke-miterlimit="10" width="5.553" height="1.771"/>
<path fill="none" stroke="#000000" stroke-width="1.4173" stroke-miterlimit="10" d="M17.485,8.909
	c10.997-8.73,23.202-1.157,22.614-1.548"/>
</svg>
