<?xml version="1.0" encoding="utf-8"?>
<!-- Generator: Adobe Illustrator 15.0.2, SVG Export Plug-In . SVG Version: 6.00 Build 0)  -->
<!DOCTYPE svg PUBLIC "-//W3C//DTD SVG 1.1//EN" "http://www.w3.org/Graphics/SVG/1.1/DTD/svg11.dtd">
<svg version="1.1" id="Layer_1" xmlns="http://www.w3.org/2000/svg" xmlns:xlink="http://www.w3.org/1999/xlink" x="0px" y="0px"
	 width="195px" height="26px" viewBox="0 0 195 26" enable-background="new 0 0 195 26" xml:space="preserve">
<g>
	<path d="M14.449,6.687V6.69c-4.822,0.009-5.423,4.007-5.316,5.381c0.194,3.282,2.43,2.841,2.43,7.037c0.192,0.027,0.412,0,0.412,0
		v2.552l2.098,1.66h0.766l2.008-1.542l-2.839,0.002v-0.655h2.951v-0.336h-3.547v-0.655h3.547v-0.372h-4.084v-0.653h4.084v-0.002
		c0,0,0.007,0,0.012,0.002h0.394c0.005,0,0.007,0,0.009-0.002c0-4.195,2.237-3.755,2.431-7.037
		C19.913,10.69,19.31,6.676,14.449,6.687z M18.561,11.744c0.066,2.454-1.938,2.326-2.209,6.374c-0.123,0-3.646,0.001-3.767,0.001
		c-0.267-4.047-2.277-3.921-2.209-6.374c0-0.285-0.227-3.986,4.115-4.014C18.787,7.783,18.561,11.46,18.561,11.744z"/>
	<rect x="3.591" y="11.159" width="3.926" height="1.242"/>
	<rect x="21.418" y="11.055" width="3.694" height="1.243"/>
	<rect x="20.683" y="3.862" transform="matrix(-0.7069 -0.7073 0.7073 -0.7069 32.2972 24.8837)" width="1.242" height="3.776"/>
	<rect x="13.888" y="1.545" width="1.242" height="3.579"/>
	<rect x="7.154" y="3.866" transform="matrix(0.7071 -0.7071 0.7071 0.7071 -1.7912 7.1831)" width="1.242" height="3.775"/>
</g>
</svg>
