<?xml version="1.0" encoding="utf-8"?>
<!-- Generator: Adobe Illustrator 15.0.2, SVG Export Plug-In . SVG Version: 6.00 Build 0)  -->
<!DOCTYPE svg PUBLIC "-//W3C//DTD SVG 1.1//EN" "http://www.w3.org/Graphics/SVG/1.1/DTD/svg11.dtd">
<svg version="1.1" id="Layer_1" xmlns="http://www.w3.org/2000/svg" xmlns:xlink="http://www.w3.org/1999/xlink" x="0px" y="0px"
	 width="56.693px" height="12.756px" viewBox="0 0 56.693 12.756" enable-background="new 0 0 56.693 12.756" xml:space="preserve">
<g>
	<path d="M28.402,3.14v0.001c-2.718,0.005-3.057,2.258-2.996,3.033c0.109,1.85,1.369,1.602,1.369,3.966c0.108,0.016,0.232,0,0.232,0
		v1.438l1.183,0.936h0.432l1.132-0.869l-1.601,0.001v-0.369h1.663v-0.189h-1.999v-0.369h1.999v-0.21h-2.302V10.14h2.302v-0.001
		c0,0,0.004,0,0.007,0.001h0.222c0.003,0,0.004,0,0.005-0.001c0-2.364,1.261-2.116,1.37-3.966
		C31.481,5.396,31.141,3.134,28.402,3.14z M30.719,5.99c0.037,1.383-1.093,1.311-1.245,3.592c-0.069,0-2.055,0.001-2.123,0.001
		c-0.15-2.281-1.283-2.21-1.245-3.593c0-0.161-0.128-2.247,2.319-2.262C30.846,3.758,30.719,5.83,30.719,5.99z"/>
	<rect x="22.282" y="5.661" width="2.213" height="0.7"/>
	<rect x="32.33" y="5.602" width="2.082" height="0.7"/>
	<rect x="31.915" y="1.548" transform="matrix(-0.7071 -0.7071 0.7071 -0.7071 53.233 27.274)" width="0.7" height="2.128"/>
	<rect x="28.085" y="0.242" width="0.7" height="2.017"/>
	<rect x="24.29" y="1.55" transform="matrix(0.7071 -0.7071 0.7071 0.7071 5.3685 18.1888)" width="0.7" height="2.128"/>
</g>
</svg>
