<?xml version="1.0" encoding="utf-8"?>
<!-- Generator: Adobe Illustrator 15.0.2, SVG Export Plug-In . SVG Version: 6.00 Build 0)  -->
<!DOCTYPE svg PUBLIC "-//W3C//DTD SVG 1.1//EN" "http://www.w3.org/Graphics/SVG/1.1/DTD/svg11.dtd">
<svg version="1.1" id="Layer_1" xmlns="http://www.w3.org/2000/svg" xmlns:xlink="http://www.w3.org/1999/xlink" x="0px" y="0px"
	 width="70.866px" height="14.17px" viewBox="0 0 70.866 14.17" enable-background="new 0 0 70.866 14.17" xml:space="preserve">
<g>
	<path d="M35.496,3.413v0.001c-3.082,0.006-3.467,2.561-3.397,3.439c0.124,2.098,1.553,1.816,1.553,4.497
		c0.123,0.018,0.264,0,0.264,0v1.631l1.341,1.062h0.489l1.283-0.985l-1.814,0.001V12.64H37.1v-0.215h-2.267v-0.419H37.1v-0.237
		h-2.61v-0.418h2.61V11.35c0,0,0.004,0,0.008,0.001h0.251c0.003,0,0.005,0,0.006-0.001c0-2.681,1.429-2.399,1.553-4.497
		C38.987,5.972,38.602,3.406,35.496,3.413z M38.124,6.645c0.042,1.568-1.24,1.487-1.412,4.074c-0.078,0-2.33,0.001-2.407,0.001
		c-0.171-2.587-1.455-2.506-1.412-4.074c0-0.182-0.146-2.548,2.63-2.565C38.268,4.113,38.124,6.463,38.124,6.645z"/>
	<rect x="28.556" y="6.271" width="2.51" height="0.793"/>
	<rect x="39.949" y="6.205" width="2.361" height="0.794"/>
	<rect x="39.479" y="1.607" transform="matrix(-0.7071 -0.7071 0.7071 -0.7071 66.0836 33.0007)" width="0.794" height="2.413"/>
	<rect x="35.137" y="0.127" width="0.794" height="2.287"/>
	<rect x="30.833" y="1.61" transform="matrix(0.7071 -0.7071 0.7071 0.7071 7.1557 22.9082)" width="0.794" height="2.413"/>
</g>
</svg>
