<?xml version="1.0" encoding="utf-8"?>
<!-- Generator: Adobe Illustrator 15.0.2, SVG Export Plug-In . SVG Version: 6.00 Build 0)  -->
<!DOCTYPE svg PUBLIC "-//W3C//DTD SVG 1.1//EN" "http://www.w3.org/Graphics/SVG/1.1/DTD/svg11.dtd">
<svg version="1.1" id="Layer_1" xmlns="http://www.w3.org/2000/svg" xmlns:xlink="http://www.w3.org/1999/xlink" x="0px" y="0px"
	 width="195px" height="26px" viewBox="0 0 195 26" enable-background="new 0 0 195 26" xml:space="preserve">
<g>
	<path fill-rule="evenodd" clip-rule="evenodd" fill="#231F20" d="M14.536,1.111c0.255,0.051,0.408,0.204,0.511,0.409l12.848,22.213
		c0.104,0.151,0.104,0.258,0.104,0.46c0,0.409-0.31,0.666-0.718,0.718c-0.049,0-0.049,0-0.104,0H1.535
		c-0.153,0-0.307-0.052-0.46-0.103c-0.307-0.256-0.409-0.615-0.256-1.024l0.052-0.051L13.665,1.521
		c0.102-0.153,0.205-0.256,0.359-0.358C14.176,1.111,14.381,1.06,14.536,1.111L14.536,1.111z M25.337,23.065H3.429L14.381,4.028
		L25.337,23.065L25.337,23.065z"/>
	<path fill-rule="evenodd" clip-rule="evenodd" fill="#231F20" d="M12.854,11.049c-0.043-0.76,0.567-1.475,1.472-1.405
		c0.763,0,1.45,0.639,1.431,1.405l-0.521,5.857c-0.048,0.515-0.477,0.81-0.91,0.81c-0.434,0-0.823-0.289-0.91-0.81L12.854,11.049
		L12.854,11.049z M14.326,18.593c0.78,0,1.431,0.649,1.431,1.429c0,0.823-0.65,1.477-1.431,1.477c-0.779,0-1.431-0.653-1.431-1.477
		C12.896,19.242,13.547,18.593,14.326,18.593L14.326,18.593z"/>
</g>
<text transform="matrix(1 0 0 1 33.7056 19.3691)" font-family="'Arial'" font-size="14" font-weight="bold">Caution</text>
</svg>
